<svg width="32" height="32" xmlns="http://www.w3.org/2000/svg">
 <g>
  <title>background</title>
  <rect fill="none" id="canvas_background" height="34" width="34" y="-1" x="-1"/>
 </g>

 <g>
  <title>Layer 1</title>
  <rect id="svg_1" height="3.156" width="11.255" y="4.784" x="10.372" fill="#818d98"/>
  <rect id="svg_2" height="3.156" width="11.255" y="9.293" x="10.372" fill="#818d98"/>
  <circle id="svg_3" r="1.353" cy="21.354" cx="15.999" fill="#818d98"/>
  <path id="svg_4" d="m23.957,0.5l-15.914,0c-0.997,0 -1.804,0.808 -1.804,1.804l0,27.393c0,0.996 0.807,1.804 1.804,1.804l15.914,0c0.996,0 1.804,-0.808 1.804,-1.804l0,-27.393c0,-0.996 -0.808,-1.804 -1.804,-1.804zm-7.958,27.769c-0.798,0 -1.446,-0.647 -1.446,-1.447c0,-0.798 0.648,-1.446 1.446,-1.446c0.8,0 1.448,0.647 1.448,1.446c0,0.799 -0.648,1.447 -1.448,1.447zm0,-4.584c-1.286,0 -2.328,-1.043 -2.328,-2.33c0,-1.286 1.042,-2.33 2.328,-2.33c1.288,0 2.33,1.043 2.33,2.33c0,1.286 -1.042,2.33 -2.33,2.33zm6.98,-10.109l-13.959,0l0,-9.92l13.96,0l0,9.92l-0.001,0z" fill="#818d98"/>
 </g>
</svg>