<svg width="32" height="32" xmlns="http://www.w3.org/2000/svg">
 <g>
  <title>background</title>
  <rect x="-1" y="-1" width="34" height="34" id="canvas_background" fill="none"/>
 </g>

 <g>
  <title>Layer 1</title>
  <path fill="#818d98" d="m29.185,0.501l-26.369,0c-1.278,0 -2.316,1.037 -2.316,2.316l0,26.366c0,1.279 1.038,2.316 2.316,2.316l26.368,0c1.279,0 2.315,-1.037 2.315,-2.316l0,-26.366c0.001,-1.279 -1.035,-2.316 -2.314,-2.316zm-25.151,2.284c0.691,0 1.25,0.56 1.25,1.25c0,0.69 -0.559,1.25 -1.25,1.25c-0.688,0 -1.249,-0.559 -1.249,-1.25c0,-0.69 0.561,-1.25 1.249,-1.25zm0,26.43c-0.688,0 -1.249,-0.56 -1.249,-1.25c0,-0.69 0.561,-1.25 1.249,-1.25c0.691,0 1.25,0.559 1.25,1.25c0,0.69 -0.558,1.25 -1.25,1.25zm11.966,-1.25c-6.607,0 -11.966,-5.357 -11.966,-11.965s5.359,-11.965 11.966,-11.965c6.608,0 11.967,5.357 11.967,11.965s-5.359,11.965 -11.967,11.965zm11.967,1.25c-0.691,0 -1.25,-0.56 -1.25,-1.25c0,-0.69 0.559,-1.25 1.25,-1.25c0.688,0 1.249,0.559 1.249,1.25c0,0.69 -0.561,1.25 -1.249,1.25zm0,-23.931c-0.691,0 -1.25,-0.559 -1.25,-1.25c0,-0.69 0.559,-1.25 1.25,-1.25c0.688,0 1.249,0.56 1.249,1.25c0,0.691 -0.561,1.25 -1.249,1.25z" id="svg_1"/>
  <path fill="#818d98" d="m26.056,15.378c-0.025,-0.396 -0.274,-0.651 -0.665,-0.728c-0.831,-0.159 -2.412,-0.315 -4.173,0.253c-0.178,-0.846 -0.57,-1.604 -1.097,-2.25c0.849,-0.784 1.97,-1.729 3.028,-2.311c0.309,-0.171 0.834,-0.503 0.518,-0.88c-0.894,-1.059 -1.983,-1.891 -3.176,-2.481c-0.359,-0.176 -0.704,-0.086 -0.965,0.213c-0.557,0.64 -1.487,1.941 -1.873,3.762c-0.523,-0.173 -1.073,-0.289 -1.653,-0.289c-0.287,0 -0.564,0.041 -0.839,0.084c-0.255,-1.125 -0.51,-2.57 -0.487,-3.773c0.008,-0.351 -0.018,-0.974 -0.502,-0.886c-1.362,0.244 -2.627,0.77 -3.737,1.509c-0.332,0.221 -0.425,0.566 -0.296,0.941c0.277,0.801 0.936,2.257 2.318,3.5c-0.628,0.561 -1.118,1.258 -1.426,2.058c-1.1,-0.341 -2.477,-0.842 -3.505,-1.462c-0.301,-0.181 -0.852,-0.471 -1.019,-0.008c-0.472,1.302 -0.649,2.661 -0.562,3.99c0.024,0.398 0.277,0.653 0.664,0.729c0.832,0.159 2.412,0.316 4.173,-0.253c0.178,0.847 0.57,1.604 1.096,2.251c-0.849,0.784 -1.969,1.729 -3.027,2.312c-0.308,0.17 -0.834,0.502 -0.518,0.878c0.894,1.058 1.982,1.891 3.179,2.482c0.356,0.176 0.701,0.086 0.962,-0.213c0.557,-0.642 1.487,-1.94 1.873,-3.761c0.523,0.172 1.072,0.288 1.652,0.288c0.289,0 0.564,-0.041 0.84,-0.084c0.256,1.125 0.511,2.568 0.486,3.771c-0.007,0.353 0.02,0.974 0.504,0.887c1.362,-0.243 2.629,-0.77 3.736,-1.509c0.332,-0.221 0.425,-0.565 0.296,-0.941c-0.273,-0.801 -0.934,-2.256 -2.318,-3.499c0.628,-0.561 1.121,-1.26 1.427,-2.06c1.101,0.342 2.476,0.844 3.504,1.465c0.302,0.181 0.852,0.47 1.021,0.007c0.47,-1.304 0.648,-2.663 0.561,-3.992zm-10.056,2.594c-1.089,0 -1.974,-0.883 -1.974,-1.972s0.885,-1.972 1.974,-1.972c1.09,0 1.975,0.883 1.975,1.972s-0.885,1.972 -1.975,1.972z" id="svg_2"/>
 </g>
</svg>