<svg width="32" height="32" xmlns="http://www.w3.org/2000/svg">
 <g>
  <title>background</title>
  <rect x="-1" y="-1" width="34" height="34" id="canvas_background" fill="none"/>
 </g>

 <g>
  <title>Layer 1</title>
  <path fill="#818d98" d="m25.65,14.85c-0.091,-0.436 -0.294,-0.826 -0.565,-1.16c0.438,-0.402 1.017,-0.891 1.561,-1.189c0.159,-0.088 0.429,-0.26 0.266,-0.453c-0.46,-0.545 -1.021,-0.975 -1.636,-1.279c-0.184,-0.09 -0.361,-0.043 -0.497,0.109c-0.285,0.33 -0.766,1 -0.964,1.939c-0.271,-0.09 -0.554,-0.148 -0.852,-0.148c-0.148,0 -0.291,0.021 -0.433,0.043c-0.131,-0.58 -0.263,-1.324 -0.252,-1.943c0.004,-0.182 -0.008,-0.502 -0.258,-0.457c-0.702,0.125 -1.354,0.396 -1.926,0.777c-0.17,0.113 -0.22,0.293 -0.153,0.484c0.144,0.412 0.482,1.164 1.194,1.805c-0.322,0.289 -0.576,0.648 -0.733,1.059c-0.567,-0.174 -1.275,-0.434 -1.806,-0.752c-0.156,-0.094 -0.438,-0.244 -0.524,-0.004c-0.243,0.67 -0.335,1.369 -0.29,2.055c0.013,0.205 0.142,0.336 0.343,0.375c0.428,0.082 1.242,0.164 2.149,-0.129c0.091,0.436 0.294,0.826 0.564,1.158c-0.437,0.404 -1.016,0.891 -1.56,1.191c-0.158,0.088 -0.429,0.258 -0.266,0.453c0.459,0.545 1.021,0.975 1.637,1.277c0.184,0.092 0.36,0.045 0.496,-0.109c0.285,-0.33 0.766,-1 0.964,-1.938c0.271,0.09 0.553,0.148 0.853,0.148c0.147,0 0.291,-0.021 0.434,-0.043c0.13,0.58 0.261,1.324 0.249,1.943c-0.003,0.182 0.01,0.5 0.26,0.457c0.701,-0.127 1.354,-0.398 1.925,-0.777c0.17,-0.115 0.22,-0.293 0.154,-0.486c-0.144,-0.412 -0.483,-1.162 -1.194,-1.803c0.321,-0.289 0.575,-0.648 0.733,-1.061c0.566,0.176 1.275,0.434 1.805,0.754c0.156,0.094 0.439,0.242 0.526,0.004c0.242,-0.67 0.332,-1.371 0.289,-2.057c-0.015,-0.203 -0.143,-0.334 -0.344,-0.375c-0.427,-0.081 -1.241,-0.161 -2.149,0.132zm-2.687,1.582c-0.562,0 -1.018,-0.455 -1.018,-1.018c0,-0.561 0.456,-1.016 1.018,-1.016s1.016,0.455 1.016,1.016c0,0.563 -0.455,1.018 -1.016,1.018z" id="svg_1"/>
  <path fill="#818d98" d="m0.5,7.588l3.502,0l0,2.092l-0.981,0c-0.336,0 -0.608,0.271 -0.608,0.607l0,1.42c0,0.336 0.272,0.609 0.608,0.609l0.981,0l0,1.063l-0.981,0c-0.336,0 -0.608,0.273 -0.608,0.609l0,2.854c0,0.336 0.272,0.607 0.608,0.607l0.981,0l0,1.064l-0.981,0c-0.336,0 -0.608,0.273 -0.608,0.609l0,1.418c0,0.336 0.272,0.609 0.608,0.609l0.981,0l0,4.666l1.405,0l0,-19.631l-4.907,0l0,1.404z" id="svg_2"/>
  <path fill="#818d98" d="m30.563,7.514l-23.879,0l0,15.803l2.146,0l0,2.307l7.688,0l0,-2.307l2.575,0l0,2.307l5.299,0l0,-2.307l6.172,0c0.518,0 0.937,-0.42 0.937,-0.938l0,-13.928c-0.001,-0.517 -0.42,-0.937 -0.938,-0.937zm-19.76,17.424l-1.038,0l0,-1.393l1.038,0l0,1.393zm2.389,0l-1.038,0l0,-1.393l1.038,0l0,1.393zm2.39,0l-1.04,0l0,-1.393l1.04,0l0,1.393zm-6.77,-14.567l5.568,0l0,0.869l-5.568,0l0,-0.869zm0,3.072l5.568,0l0,0.869l-5.568,0l0,-0.869zm0,3.075l5.568,0l0,0.867l-5.568,0l0,-0.867zm0,3.941l0,-0.869l5.568,0l0,0.869l-5.568,0zm12.254,4.479l-1.039,0l0,-1.393l1.039,0l0,1.393zm2.39,0l-1.038,0l0,-1.393l1.038,0l0,1.393zm-0.493,-3.358c-3.405,0 -6.165,-2.76 -6.165,-6.166c0,-3.404 2.76,-6.164 6.165,-6.164c3.404,0 6.164,2.76 6.164,6.164c0,3.406 -2.76,6.166 -6.164,6.166z" id="svg_3"/>
 </g>
</svg>