<svg width="32" height="32" xmlns="http://www.w3.org/2000/svg">
 <g>
  <title>background</title>
  <rect x="-1" y="-1" width="34" height="34" id="canvas_background" fill="none"/>
 </g>

 <g>
  <title>Layer 1</title>
  <path fill="#818d98" d="m31.107,11.107l0.393,0l0,-1.486c0,-0.693 -0.561,-1.254 -1.254,-1.254l-28.492,0c-0.693,0 -1.254,0.561 -1.254,1.254l0,1.486l0.393,0c0.734,0 1.329,0.596 1.329,1.332c0,0.734 -0.595,1.33 -1.329,1.33l-0.393,0l0,5.715c0,0.691 0.561,1.252 1.254,1.252l0.468,0l0,2.896l16.029,0l0,-0.934c0,-0.443 0.359,-0.801 0.803,-0.801c0.442,0 0.803,0.357 0.803,0.801l0,0.934l9.922,0l0,-2.896l0.468,0c0.693,0 1.254,-0.561 1.254,-1.252l0,-5.714l-0.393,0c-0.734,0 -1.329,-0.596 -1.329,-1.33c-0.001,-0.737 0.594,-1.333 1.328,-1.333zm-26.405,11.664l-1.305,0l0,-1.748l1.305,0l0,1.748zm3.001,0l-1.305,0l0,-1.748l1.305,0l0,1.748zm3.001,0l-1.306,0l0,-1.748l1.306,0l0,1.748zm3,0l-1.305,0l0,-1.748l1.305,0l0,1.748zm3.001,0l-1.304,0l0,-1.748l1.304,0l0,1.748zm6.001,0l-1.303,0l0,-1.748l1.303,0l0,1.748zm3.002,0l-1.305,0l0,-1.748l1.305,0l0,1.748zm3.001,0l-1.305,0l0,-1.748l1.305,0l0,1.748zm-5.063,-11.937l4.37,0l0,7.436l-4.37,0l0,-7.436zm-6.553,0l4.369,0l0,7.436l-4.369,0l0,-7.436zm-6.555,0l4.369,0l0,7.436l-4.369,0l0,-7.436zm-6.555,0l4.37,0l0,7.436l-4.37,0l0,-7.436z" id="svg_1"/>
 </g>
</svg>