<svg width="32" height="32" xmlns="http://www.w3.org/2000/svg">
 <g>
  <title>background</title>
  <rect x="-1" y="-1" width="34" height="34" id="canvas_background" fill="none"/>
 </g>

 <g>
  <title>Layer 1</title>
  <rect fill="#818d98" x="21.32" y="9.708" width="3.888" height="3.889" id="svg_1"/>
  <rect fill="#818d98" x="13.178" y="18.332" width="10.671" height="1.013" id="svg_2"/>
  <rect fill="#818d98" x="13.178" y="21.499" width="10.671" height="1.013" id="svg_3"/>
  <path fill="#818d98" d="m29.443,4.884l-25.817,0c-1.137,0 -2.057,0.92 -2.057,2.057l0,1.742l-0.595,0c-0.262,0 -0.474,0.212 -0.474,0.472l0,1.104c0,0.261 0.212,0.474 0.474,0.474l0.596,0l0,0.827l-0.596,0c-0.261,0 -0.474,0.212 -0.474,0.474l0,2.219c0,0.262 0.212,0.474 0.474,0.474l0.596,0l0,0.827l-0.596,0c-0.261,0 -0.474,0.212 -0.474,0.473l0,1.105c0,0.261 0.212,0.473 0.474,0.473l0.596,0l0,0.828l-0.596,0c-0.261,0 -0.474,0.211 -0.474,0.473l0,0.552c0,0.262 0.212,0.474 0.474,0.474l0.596,0l0,5.13c0,1.136 0.919,2.056 2.057,2.056l25.817,0c1.137,0 2.057,-0.92 2.057,-2.056l0,-18.122c-0.001,-1.136 -0.921,-2.056 -2.058,-2.056zm-15.285,3.799l3.246,0l0,1.346l-3.246,0l0,-1.346zm0,2.296l3.246,0l0,1.347l-3.246,0l0,-1.347zm0,2.295l3.246,0l0,1.348l-3.246,0l0,-1.348zm-9.503,11.787c-0.481,0 -0.871,-0.39 -0.871,-0.871s0.39,-0.871 0.871,-0.871s0.871,0.39 0.871,0.871s-0.39,0.871 -0.871,0.871zm0,-16.378c-0.481,0 -0.871,-0.391 -0.871,-0.871s0.39,-0.872 0.871,-0.872s0.871,0.391 0.871,0.871s-0.39,0.872 -0.871,0.872zm4.262,14.362l-2.078,0l0,-2.079l2.079,0l0,2.079l-0.001,0zm0,-3.167l-2.078,0l0,-2.079l2.079,0l0,2.079l-0.001,0zm0.196,-4.491l-1.235,0l0,-7.47l1.235,0l0,7.47zm2.574,0l-1.235,0l0,-7.47l1.235,0l0,7.47zm12.884,7.663l-12.116,0l0,-2.089l12.116,0l0,2.089zm0,-3.167l-12.116,0l0,-2.089l12.116,0l0,2.089zm1.663,-5.261l-5.939,0l0,-5.939l5.939,0l0,5.939zm2.18,10.439c-0.481,0 -0.871,-0.39 -0.871,-0.871s0.39,-0.871 0.871,-0.871c0.48,0 0.871,0.39 0.871,0.871s-0.39,0.871 -0.871,0.871zm0,-16.378c-0.481,0 -0.871,-0.391 -0.871,-0.871s0.39,-0.871 0.871,-0.871c0.48,0 0.871,0.391 0.871,0.871s-0.39,0.871 -0.871,0.871z" id="svg_4"/>
 </g>
</svg>