<svg width="32" height="32" xmlns="http://www.w3.org/2000/svg">
 <g>
  <title>background</title>
  <rect x="-1" y="-1" width="34" height="34" id="canvas_background" fill="none"/>
 </g>

 <g>
  <title>Layer 1</title>
  <path fill="#818d98" d="m13.925,15.298c-0.114,-0.543 -0.366,-1.028 -0.704,-1.442c0.544,-0.503 1.264,-1.108 1.94,-1.481c0.199,-0.11 0.535,-0.322 0.332,-0.563c-0.572,-0.679 -1.271,-1.212 -2.035,-1.591c-0.229,-0.112 -0.45,-0.056 -0.618,0.137c-0.355,0.41 -0.953,1.244 -1.2,2.411c-0.335,-0.11 -0.688,-0.185 -1.06,-0.185c-0.184,0 -0.361,0.025 -0.538,0.054c-0.163,-0.722 -0.326,-1.648 -0.312,-2.418c0.005,-0.226 -0.011,-0.625 -0.322,-0.57c-0.873,0.156 -1.685,0.493 -2.396,0.967c-0.212,0.143 -0.273,0.363 -0.19,0.604c0.178,0.514 0.6,1.447 1.485,2.244c-0.401,0.359 -0.716,0.807 -0.912,1.318c-0.705,-0.219 -1.587,-0.54 -2.246,-0.938c-0.194,-0.116 -0.547,-0.302 -0.654,-0.005c-0.301,0.834 -0.415,1.705 -0.359,2.558c0.017,0.255 0.177,0.418 0.427,0.467c0.532,0.102 1.545,0.202 2.674,-0.162c0.113,0.543 0.365,1.027 0.702,1.442c-0.543,0.503 -1.263,1.108 -1.939,1.481c-0.198,0.109 -0.535,0.322 -0.332,0.563c0.572,0.678 1.271,1.212 2.036,1.59c0.229,0.113 0.45,0.057 0.617,-0.136c0.355,-0.412 0.953,-1.244 1.2,-2.41c0.336,0.109 0.688,0.184 1.06,0.184c0.185,0 0.362,-0.025 0.539,-0.054c0.163,0.721 0.326,1.646 0.311,2.417c-0.004,0.226 0.012,0.624 0.323,0.568c0.873,-0.156 1.685,-0.494 2.395,-0.967c0.212,-0.143 0.273,-0.362 0.191,-0.604c-0.178,-0.514 -0.601,-1.446 -1.486,-2.242c0.401,-0.36 0.717,-0.808 0.912,-1.32c0.706,0.219 1.588,0.54 2.246,0.938c0.195,0.116 0.547,0.301 0.654,0.005c0.302,-0.835 0.415,-1.706 0.36,-2.559c-0.018,-0.254 -0.178,-0.417 -0.427,-0.466c-0.533,-0.1 -1.546,-0.199 -2.674,0.165zm-3.345,1.967c-0.698,0 -1.265,-0.565 -1.265,-1.264c0,-0.699 0.566,-1.265 1.265,-1.265s1.265,0.565 1.265,1.265c0,0.698 -0.567,1.264 -1.265,1.264z" id="svg_1"/>
  <rect fill="#818d98" x="22.14" y="18.829" width="0.975" height="1.909" id="svg_2"/>
  <rect fill="#818d98" x="25.435" y="18.829" width="0.974" height="1.909" id="svg_3"/>
  <rect fill="#818d98" x="23.788" y="20.776" width="0.974" height="1.909" id="svg_4"/>
  <path fill="#818d98" d="m29.555,5.264l-27.11,0c-1.075,0 -1.945,0.87 -1.945,1.944l0,17.584c0,1.074 0.87,1.944 1.945,1.944l27.109,0c1.076,0 1.945,-0.87 1.945,-1.944l0,-17.584c0.001,-1.074 -0.868,-1.944 -1.944,-1.944zm-18.975,18.727c-4.413,0 -7.991,-3.578 -7.991,-7.991s3.578,-7.991 7.991,-7.991c4.414,0 7.991,3.578 7.991,7.991s-3.577,7.991 -7.991,7.991zm16.759,-2.779c0,0.988 -1.803,2.504 -3.064,2.504s-3.065,-1.516 -3.065,-2.504s0,-3.375 0,-3.375l3.064,0l3.064,0c0.001,0 0.001,2.387 0.001,3.375zm0.395,-8.598l-6.921,0l0,-3.145l6.921,0l0,3.145z" id="svg_5"/>
  <rect fill="#818d98" x="21.429" y="10.003" width="2.846" height="2.078" id="svg_6"/>
 </g>
</svg>