<svg width="32" height="40" xmlns="http://www.w3.org/2000/svg">
 <g>
  <title>background</title>
  <rect x="-1" y="-1" width="34" height="42" id="canvas_background" fill="none"/>
 </g>

 <g>
  <title>Layer 1</title>
  <rect fill="#ffffff" x="10.372" y="4.784" width="11.255" height="3.156" id="svg_1"/>
  <rect fill="#ffffff" x="10.372" y="9.293" width="11.255" height="3.156" id="svg_2"/>
  <circle fill="#ffffff" cx="15.999" cy="21.354" r="1.353" id="svg_3"/>
  <path fill="#ffffff" d="m23.957,0.5l-15.914,0c-0.997,0 -1.804,0.808 -1.804,1.804l0,27.393c0,0.996 0.807,1.804 1.804,1.804l15.914,0c0.996,0 1.804,-0.808 1.804,-1.804l0,-27.393c0,-0.996 -0.808,-1.804 -1.804,-1.804zm-7.958,27.769c-0.798,0 -1.446,-0.647 -1.446,-1.447c0,-0.798 0.648,-1.446 1.446,-1.446c0.8,0 1.448,0.647 1.448,1.446c0,0.799 -0.648,1.447 -1.448,1.447zm0,-4.584c-1.286,0 -2.328,-1.043 -2.328,-2.33c0,-1.286 1.042,-2.33 2.328,-2.33c1.288,0 2.33,1.043 2.33,2.33c0,1.286 -1.042,2.33 -2.33,2.33zm6.98,-10.109l-13.959,0l0,-9.92l13.96,0l0,9.92l-0.001,0z" id="svg_4"/>
 </g>
</svg>